<svg id="visual" viewBox="0 0 900 600" width="900" height="600" xmlns="http://www.w3.org/2000/svg" xmlns:xlink="http://www.w3.org/1999/xlink" version="1.1"><rect x="0" y="0" width="900" height="600" fill="#13293A"></rect><path d="M0 468L15 467.7C30 467.3 60 466.7 90 467.3C120 468 150 470 180 473.3C210 476.7 240 481.3 270 485.7C300 490 330 494 360 491C390 488 420 478 450 471.3C480 464.7 510 461.3 540 466.5C570 471.7 600 485.3 630 488.3C660 491.3 690 483.7 720 480.8C750 478 780 480 810 479.8C840 479.7 870 477.3 885 476.2L900 475L900 601L885 601C870 601 840 601 810 601C780 601 750 601 720 601C690 601 660 601 630 601C600 601 570 601 540 601C510 601 480 601 450 601C420 601 390 601 360 601C330 601 300 601 270 601C240 601 210 601 180 601C150 601 120 601 90 601C60 601 30 601 15 601L0 601Z" fill="#FFFFFF" stroke-linecap="round" stroke-linejoin="miter"></path></svg>