<svg id="visual" viewBox="0 0 900 600" width="900" height="600" xmlns="http://www.w3.org/2000/svg" xmlns:xlink="http://www.w3.org/1999/xlink" version="1.1"><rect x="0" y="0" width="900" height="600" fill="#001220"></rect><path d="M0 519L21.5 522.7C43 526.3 86 533.7 128.8 535.7C171.7 537.7 214.3 534.3 257.2 533.2C300 532 343 533 385.8 532C428.7 531 471.3 528 514.2 523.7C557 519.3 600 513.7 642.8 512.8C685.7 512 728.3 516 771.2 521C814 526 857 532 878.5 535L900 538L900 601L878.5 601C857 601 814 601 771.2 601C728.3 601 685.7 601 642.8 601C600 601 557 601 514.2 601C471.3 601 428.7 601 385.8 601C343 601 300 601 257.2 601C214.3 601 171.7 601 128.8 601C86 601 43 601 21.5 601L0 601Z" fill="#ffffff"></path><path d="M0 533L21.5 535C43 537 86 541 128.8 542.7C171.7 544.3 214.3 543.7 257.2 543.7C300 543.7 343 544.3 385.8 545.2C428.7 546 471.3 547 514.2 545.3C557 543.7 600 539.3 642.8 537.3C685.7 535.3 728.3 535.7 771.2 534.5C814 533.3 857 530.7 878.5 529.3L900 528L900 601L878.5 601C857 601 814 601 771.2 601C728.3 601 685.7 601 642.8 601C600 601 557 601 514.2 601C471.3 601 428.7 601 385.8 601C343 601 300 601 257.2 601C214.3 601 171.7 601 128.8 601C86 601 43 601 21.5 601L0 601Z" fill="#f9f9f9"></path><path d="M0 568L21.5 566C43 564 86 560 128.8 561.7C171.7 563.3 214.3 570.7 257.2 573.7C300 576.7 343 575.3 385.8 574.8C428.7 574.3 471.3 574.7 514.2 572C557 569.3 600 563.7 642.8 561C685.7 558.3 728.3 558.7 771.2 561.7C814 564.7 857 570.3 878.5 573.2L900 576L900 601L878.5 601C857 601 814 601 771.2 601C728.3 601 685.7 601 642.8 601C600 601 557 601 514.2 601C471.3 601 428.7 601 385.8 601C343 601 300 601 257.2 601C214.3 601 171.7 601 128.8 601C86 601 43 601 21.5 601L0 601Z" fill="#f3f3f3"></path></svg>