<svg id="visual" viewBox="0 0 960 540" width="960" height="540" xmlns="http://www.w3.org/2000/svg" xmlns:xlink="http://www.w3.org/1999/xlink" version="1.1"><rect x="0" y="0" width="960" height="540" fill="#001220"></rect><path d="M0 394L22.8 395.7C45.7 397.3 91.3 400.7 137 397C182.7 393.3 228.3 382.7 274 379.3C319.7 376 365.3 380 411.2 380.3C457 380.7 503 377.3 548.8 369.5C594.7 361.7 640.3 349.3 686 345.8C731.7 342.3 777.3 347.7 823 351.2C868.7 354.7 914.3 356.3 937.2 357.2L960 358L960 541L937.2 541C914.3 541 868.7 541 823 541C777.3 541 731.7 541 686 541C640.3 541 594.7 541 548.8 541C503 541 457 541 411.2 541C365.3 541 319.7 541 274 541C228.3 541 182.7 541 137 541C91.3 541 45.7 541 22.8 541L0 541Z" fill="#fa7268"></path><path d="M0 420L22.8 415.3C45.7 410.7 91.3 401.3 137 393.2C182.7 385 228.3 378 274 383C319.7 388 365.3 405 411.2 413.8C457 422.7 503 423.3 548.8 421C594.7 418.7 640.3 413.3 686 411.3C731.7 409.3 777.3 410.7 823 411.3C868.7 412 914.3 412 937.2 412L960 412L960 541L937.2 541C914.3 541 868.7 541 823 541C777.3 541 731.7 541 686 541C640.3 541 594.7 541 548.8 541C503 541 457 541 411.2 541C365.3 541 319.7 541 274 541C228.3 541 182.7 541 137 541C91.3 541 45.7 541 22.8 541L0 541Z" fill="#ef5f67"></path><path d="M0 449L22.8 448.7C45.7 448.3 91.3 447.7 137 442.2C182.7 436.7 228.3 426.3 274 418.7C319.7 411 365.3 406 411.2 403C457 400 503 399 548.8 403C594.7 407 640.3 416 686 424C731.7 432 777.3 439 823 442.7C868.7 446.3 914.3 446.7 937.2 446.8L960 447L960 541L937.2 541C914.3 541 868.7 541 823 541C777.3 541 731.7 541 686 541C640.3 541 594.7 541 548.8 541C503 541 457 541 411.2 541C365.3 541 319.7 541 274 541C228.3 541 182.7 541 137 541C91.3 541 45.7 541 22.8 541L0 541Z" fill="#e34c67"></path><path d="M0 449L22.8 452C45.7 455 91.3 461 137 462.2C182.7 463.3 228.3 459.7 274 462.2C319.7 464.7 365.3 473.3 411.2 469.7C457 466 503 450 548.8 447.7C594.7 445.3 640.3 456.7 686 462.7C731.7 468.7 777.3 469.3 823 467.8C868.7 466.3 914.3 462.7 937.2 460.8L960 459L960 541L937.2 541C914.3 541 868.7 541 823 541C777.3 541 731.7 541 686 541C640.3 541 594.7 541 548.8 541C503 541 457 541 411.2 541C365.3 541 319.7 541 274 541C228.3 541 182.7 541 137 541C91.3 541 45.7 541 22.8 541L0 541Z" fill="#d53867"></path><path d="M0 491L22.8 491.7C45.7 492.3 91.3 493.7 137 490.7C182.7 487.7 228.3 480.3 274 481.3C319.7 482.3 365.3 491.7 411.2 493.3C457 495 503 489 548.8 484.7C594.7 480.3 640.3 477.7 686 476.2C731.7 474.7 777.3 474.3 823 479.7C868.7 485 914.3 496 937.2 501.5L960 507L960 541L937.2 541C914.3 541 868.7 541 823 541C777.3 541 731.7 541 686 541C640.3 541 594.7 541 548.8 541C503 541 457 541 411.2 541C365.3 541 319.7 541 274 541C228.3 541 182.7 541 137 541C91.3 541 45.7 541 22.8 541L0 541Z" fill="#c62368"></path></svg>